<?xml version="1.0" encoding="utf-8"?>
<!-- Generator: Adobe Illustrator 17.1.0, SVG Export Plug-In . SVG Version: 6.00 Build 0)  -->
<!DOCTYPE svg PUBLIC "-//W3C//DTD SVG 1.1//EN" "http://www.w3.org/Graphics/SVG/1.1/DTD/svg11.dtd">
<svg version="1.1" id="Layer_1" xmlns="http://www.w3.org/2000/svg" xmlns:xlink="http://www.w3.org/1999/xlink" x="0px" y="0px"
	 viewBox="0 0 60 60" enable-background="new 0 0 60 60" xml:space="preserve">
<path fill="#FFFFFF" d="M60,3.8c0-0.1,0-0.1,0-0.3V3.4c0-0.1,0-0.1-0.1-0.3c0,0,0,0,0-0.1c0,0,0,0,0-0.1c0-0.1-0.1-0.1-0.1-0.1
	l-0.1-0.1c0,0,0,0-0.1,0h-0.1h-0.1c-0.3-0.1-0.4-0.1-0.4-0.1h-0.1c-0.1,0-0.1,0-0.3,0h-0.1L0.9,26.3C0.3,26.6,0,27.1,0,27.6
	s0.3,1,0.8,1.1l21.2,8.6v18.9c0,0.6,0.4,1,0.9,1.3c0.1,0,0.3,0,0.4,0c0.4,0,0.9-0.3,1.1-0.6L32.7,43L48,51.1
	c0.1,0.1,0.4,0.1,0.6,0.1c0.1,0,0.4,0,0.5-0.1c0.4-0.1,0.6-0.5,0.8-0.9L60.1,4l0,0C60,3.9,60,3.9,60,3.8z M52.7,7.6L31.6,27.1
	l-8.6,7.9L4.5,27.6L52.7,7.6z M24.4,51.7V38.6l6,3.3L24.4,51.7z M47.7,48.1L25.4,36.2L53.7,10l2.9-2.8L47.7,48.1z"/>
</svg>
